<?xml version="1.0" encoding="UTF-8"?>
<svg width="44px" height="44px" viewBox="0 0 44 44" version="1.1" xmlns="http://www.w3.org/2000/svg" xmlns:xlink="http://www.w3.org/1999/xlink">
    <!-- Generator: Sketch 52.5 (67469) - http://www.bohemiancoding.com/sketch -->
    <title>Info</title>
    <desc>Created with Sketch.</desc>
    <defs>
        <path d="M22,44 C9.8497355,44 0,34.1502645 0,22 C0,9.8497355 9.8497355,0 22,0 C34.1502645,0 44,9.8497355 44,22 C44,34.1502645 34.1502645,44 22,44 Z M27.8675537,32.5212402 C27.6711009,32.6136886 27.3533144,32.7205804 26.9141846,32.8419189 C26.4750548,32.9632574 26.0821551,33.0239258 25.7354736,33.0239258 C24.9958866,33.0239258 24.4758723,32.9025891 24.175415,32.6599121 C23.8749578,32.4172351 23.7247314,31.9607781 23.7247314,31.2905273 C23.7247314,31.0247383 23.7709549,30.6318385 23.8634033,30.1118164 C23.9558517,29.5917943 24.0598546,29.1295593 24.175415,28.7250977 L25.5968018,23.6809082 C25.7354743,23.2186663 25.8308103,22.7102079 25.8828125,22.1555176 C25.9348147,21.6008273 25.9608154,21.2137055 25.9608154,20.9941406 C25.9608154,19.9309843 25.5881385,19.0671827 24.8427734,18.40271 C24.0974084,17.7382372 23.0371569,17.4060059 21.6619873,17.4060059 C20.8992882,17.4060059 20.090377,17.5417874 19.2352295,17.8133545 C18.380082,18.0849216 17.4845018,18.411375 16.5484619,18.7927246 L16.1671143,20.3527832 C16.4444594,20.2487788 16.7766908,20.138998 17.1638184,20.0234375 C17.5509459,19.907877 17.9294008,19.8500977 18.2991943,19.8500977 C19.0503374,19.8500977 19.5587959,19.9772123 19.824585,20.2314453 C20.0903741,20.4856784 20.2232666,20.9363574 20.2232666,21.5834961 C20.2232666,21.9417336 20.1799321,22.3375222 20.0932617,22.770874 C20.0065914,23.2042258 19.8996995,23.6635718 19.772583,24.1489258 L18.3511963,29.2104492 C18.2240798,29.7420274 18.1316328,30.2187072 18.0738525,30.6405029 C18.0160723,31.0622987 17.9871826,31.4754212 17.9871826,31.8798828 C17.9871826,32.9199271 18.3714154,33.7779507 19.1398926,34.4539795 C19.9083697,35.1300083 20.985955,35.4680176 22.3726807,35.4680176 C23.2740524,35.4680176 24.0656297,35.3495699 24.7474365,35.1126709 C25.4292433,34.8757719 26.3421574,34.5319847 27.4862061,34.0812988 L27.8675537,32.5212402 Z M28.2315674,11.3564453 C28.2315674,10.4781857 27.899336,9.7270539 27.2348633,9.10302734 C26.5703906,8.47900079 25.7701463,8.16699219 24.8341064,8.16699219 C23.8980666,8.16699219 23.0949334,8.47900079 22.4246826,9.10302734 C21.7544319,9.7270539 21.4193115,10.4781857 21.4193115,11.3564453 C21.4193115,12.2347049 21.7544319,12.9829478 22.4246826,13.6011963 C23.0949334,14.2194448 23.8980666,14.5285645 24.8341064,14.5285645 C25.7701463,14.5285645 26.5703906,14.2194448 27.2348633,13.6011963 C27.899336,12.9829478 28.2315674,12.2347049 28.2315674,11.3564453 Z" id="path-1"></path>
        <filter x="-6.8%" y="-6.8%" width="113.6%" height="113.6%" filterUnits="objectBoundingBox" id="filter-2">
            <feGaussianBlur stdDeviation="2.5" in="SourceAlpha" result="shadowBlurInner1"></feGaussianBlur>
            <feOffset dx="1" dy="1" in="shadowBlurInner1" result="shadowOffsetInner1"></feOffset>
            <feComposite in="shadowOffsetInner1" in2="SourceAlpha" operator="arithmetic" k2="-1" k3="1" result="shadowInnerInner1"></feComposite>
            <feColorMatrix values="0 0 0 0 0   0 0 0 0 0   0 0 0 0 0  0 0 0 0.2 0" type="matrix" in="shadowInnerInner1"></feColorMatrix>
        </filter>
    </defs>
    <g id="Info" stroke="none" stroke-width="1" fill="none" fill-rule="evenodd">
        <g id="Group-3">
            <g id="Group">
                <g id="Combined-Shape">
                    <use fill="#FFFFFF" fill-rule="evenodd" xlink:href="#path-1"></use>
                    <use fill="black" fill-opacity="1" filter="url(#filter-2)" xlink:href="#path-1"></use>
                </g>
            </g>
        </g>
    </g>
</svg>