<svg id="Info" xmlns="http://www.w3.org/2000/svg" width="44" height="44" viewBox="0 0 44 44">
  <g id="path-1-link">
    <path id="path-1" d="M22,44A22.006,22.006,0,0,1,13.436,1.729,22.006,22.006,0,0,1,30.563,42.271,21.853,21.853,0,0,1,22,44ZM18.3,19.85a2.262,2.262,0,0,1,1.525.381,1.844,1.844,0,0,1,.4,1.353,6.12,6.12,0,0,1-.13,1.187c-.085.425-.193.888-.32,1.378L18.351,29.21c-.128.536-.221,1.017-.277,1.43a9.164,9.164,0,0,0-.086,1.239,3.293,3.293,0,0,0,1.153,2.574,4.751,4.751,0,0,0,3.233,1.014,7.262,7.262,0,0,0,2.374-.355c.682-.237,1.6-.584,2.739-1.031l.382-1.56a6.667,6.667,0,0,1-.953.32,4.5,4.5,0,0,1-1.179.182,2.547,2.547,0,0,1-1.56-.364,1.7,1.7,0,0,1-.451-1.37,7.357,7.357,0,0,1,.139-1.178,13.922,13.922,0,0,1,.312-1.387L25.6,23.681a7.951,7.951,0,0,0,.286-1.525c.052-.561.077-.941.077-1.161A3.327,3.327,0,0,0,24.843,18.4a4.642,4.642,0,0,0-3.181-1,8.059,8.059,0,0,0-2.427.408c-.847.268-1.751.6-2.687.979l-.382,1.56c.292-.108.628-.219,1-.329A4,4,0,0,1,18.3,19.85ZM24.834,8.167a3.429,3.429,0,0,0-2.409.936,3.019,3.019,0,0,0,0,4.5,3.581,3.581,0,0,0,4.81,0,3.037,3.037,0,0,0,0-4.5A3.4,3.4,0,0,0,24.834,8.167Z" fill="#fff"/>
  </g>
  <g id="path-1-link-2" data-name="path-1-link">
    <path id="path-1-2" data-name="path-1" d="M22,44A22.006,22.006,0,0,1,13.436,1.729,22.006,22.006,0,0,1,30.563,42.271,21.853,21.853,0,0,1,22,44ZM18.3,19.85a2.262,2.262,0,0,1,1.525.381,1.844,1.844,0,0,1,.4,1.353,6.12,6.12,0,0,1-.13,1.187c-.085.425-.193.888-.32,1.378L18.351,29.21c-.128.536-.221,1.017-.277,1.43a9.164,9.164,0,0,0-.086,1.239,3.293,3.293,0,0,0,1.153,2.574,4.751,4.751,0,0,0,3.233,1.014,7.262,7.262,0,0,0,2.374-.355c.682-.237,1.6-.584,2.739-1.031l.382-1.56a6.667,6.667,0,0,1-.953.32,4.5,4.5,0,0,1-1.179.182,2.547,2.547,0,0,1-1.56-.364,1.7,1.7,0,0,1-.451-1.37,7.357,7.357,0,0,1,.139-1.178,13.922,13.922,0,0,1,.312-1.387L25.6,23.681a7.951,7.951,0,0,0,.286-1.525c.052-.561.077-.941.077-1.161A3.327,3.327,0,0,0,24.843,18.4a4.642,4.642,0,0,0-3.181-1,8.059,8.059,0,0,0-2.427.408c-.847.268-1.751.6-2.687.979l-.382,1.56c.292-.108.628-.219,1-.329A4,4,0,0,1,18.3,19.85ZM24.834,8.167a3.429,3.429,0,0,0-2.409.936,3.019,3.019,0,0,0,0,4.5,3.581,3.581,0,0,0,4.81,0,3.037,3.037,0,0,0,0-4.5A3.4,3.4,0,0,0,24.834,8.167Z" fill="#58606e"/>
  </g>
</svg>
