<svg id="Layer_1" data-name="Layer 1" xmlns="http://www.w3.org/2000/svg" viewBox="0 0 1053.53 129.77"><defs><style>.cls-1{fill:#fff;}.cls-2{fill:none;stroke:#fff;stroke-linecap:round;stroke-miterlimit:10;stroke-width:2.5px;}.cls-3{fill:#aa2931;}.cls-4{fill:#df352a;}</style></defs><title>api-logo</title><path class="cls-1" d="M170.5,399.66l-5.59,16.92h-7.18L176,362.8h8.38l18.35,53.78h-7.42l-5.74-16.92Zm17.63-5.42-5.27-15.48c-1.19-3.51-2-6.7-2.79-9.82h-.16c-.8,3.2-1.67,6.47-2.71,9.74l-5.27,15.56Z" transform="translate(-157.73 -319.61)"/><path class="cls-1" d="M212.22,363.44a80.26,80.26,0,0,1,13.33-1c6.86,0,11.89,1.6,15.08,4.47a14.45,14.45,0,0,1,4.7,11.25c0,4.87-1.43,8.7-4.14,11.49-3.67,3.91-9.66,5.9-16.44,5.9a24.45,24.45,0,0,1-5.59-.47v21.54h-6.94Zm6.94,25.93a23.31,23.31,0,0,0,5.75.56c8.38,0,13.48-4.07,13.48-11.49,0-7.1-5-10.53-12.68-10.53a29.1,29.1,0,0,0-6.55.56Z" transform="translate(-157.73 -319.61)"/><path class="cls-1" d="M263.2,362.8v53.78h-6.94V362.8Z" transform="translate(-157.73 -319.61)"/><path class="cls-1" d="M339.16,393c-.4-7.5-.88-16.51-.8-23.22h-.24c-1.83,6.31-4.07,13-6.78,20.43l-9.5,26.09h-5.26l-8.7-25.61c-2.55-7.58-4.71-14.52-6.22-20.91h-.16c-.16,6.71-.56,15.72-1,23.78L299,416.58H292.4l3.75-53.78H305l9.18,26c2.23,6.62,4.06,12.53,5.42,18.11h.24c1.36-5.42,3.27-11.33,5.67-18.11l9.57-26H344l3.35,53.78h-6.78Z" transform="translate(-157.73 -319.61)"/><path class="cls-1" d="M367.48,399.66l-5.59,16.92h-7.18L373,362.8h8.38l18.35,53.78h-7.42l-5.74-16.92Zm17.63-5.42-5.26-15.48c-1.2-3.51-2-6.7-2.8-9.82h-.16c-.79,3.2-1.67,6.47-2.71,9.74l-5.26,15.56Z" transform="translate(-157.73 -319.61)"/><path class="cls-1" d="M409.21,363.52a72,72,0,0,1,13.32-1.12c7.42,0,12.21,1.36,15.56,4.39A13.39,13.39,0,0,1,442.32,377c0,7.1-4.47,11.81-10.14,13.73V391c4.15,1.43,6.63,5.26,7.9,10.85,1.76,7.5,3,12.68,4.15,14.76h-7.18c-.88-1.52-2.07-6.15-3.59-12.85-1.59-7.42-4.47-10.21-10.77-10.45h-6.54v23.3h-6.94ZM416.15,388h7.1c7.42,0,12.13-4.06,12.13-10.21,0-6.94-5-10-12.37-10.05a28.43,28.43,0,0,0-6.86.64Z" transform="translate(-157.73 -319.61)"/><path class="cls-1" d="M453.72,362.8h6.95v25.93h.23c1.44-2.07,2.88-4,4.23-5.74l16.44-20.19h8.62l-19.47,22.82,21,31h-8.22l-17.71-26.41-5.1,5.9v20.51h-6.95Z" transform="translate(-157.73 -319.61)"/><path class="cls-1" d="M526.41,391.37H505.5v19.38h23.3v5.83H498.56V362.8h29v5.83H505.5v17h20.91Z" transform="translate(-157.73 -319.61)"/><path class="cls-1" d="M550.9,368.71H534.54V362.8h39.82v5.91H557.92v47.87h-7Z" transform="translate(-157.73 -319.61)"/><path class="cls-1" d="M581.93,363.44a80.26,80.26,0,0,1,13.33-1c6.86,0,11.89,1.6,15.08,4.47a14.45,14.45,0,0,1,4.7,11.25c0,4.87-1.43,8.7-4.14,11.49-3.67,3.91-9.66,5.9-16.44,5.9a24.45,24.45,0,0,1-5.59-.47v21.54h-6.94Zm6.94,25.93a23.31,23.31,0,0,0,5.75.56c8.38,0,13.48-4.07,13.48-11.49,0-7.1-5-10.53-12.68-10.53a29.1,29.1,0,0,0-6.55.56Z" transform="translate(-157.73 -319.61)"/><path class="cls-1" d="M626,362.8h6.94v47.95h23v5.83H626Z" transform="translate(-157.73 -319.61)"/><path class="cls-1" d="M673.92,399.66l-5.58,16.92h-7.18l18.27-53.78h8.37l18.36,53.78h-7.42L693,399.66Zm17.63-5.42-5.26-15.48c-1.2-3.51-2-6.7-2.79-9.82h-.16c-.8,3.2-1.68,6.47-2.72,9.74l-5.26,15.56Z" transform="translate(-157.73 -319.61)"/><path class="cls-1" d="M752,414.82c-2.55,1.28-7.66,2.56-14.2,2.56-15.16,0-26.57-9.58-26.57-27.21,0-16.84,11.41-28.25,28.08-28.25,6.71,0,10.94,1.44,12.77,2.4L750.44,370a25.45,25.45,0,0,0-10.86-2.23c-12.6,0-21,8.06-21,22.18,0,13.16,7.58,21.62,20.66,21.62a27.88,27.88,0,0,0,11.33-2.23Z" transform="translate(-157.73 -319.61)"/><path class="cls-1" d="M790.17,391.37H769.26v19.38h23.3v5.83H762.32V362.8h29v5.83h-22.1v17h20.91Z" transform="translate(-157.73 -319.61)"/><line class="cls-2" x1="677.02" y1="3.58" x2="677.02" y2="128.52"/><path class="cls-3" d="M1211.26,371.68c0-5.89-4.24-8.78-10.66-13.57-6.25-4.68-16.89-11.56-23.23-15.34s-16.64-9.59-23.76-13-12.91-5.7-16.37-5.7-5.87,1.09-7.58,3.36-2.71,5.58-3.39,9.78a122.76,122.76,0,0,0-1.23,15.07c-.18,5.81-.19,19.4-.19,19.4h0s0,13.59.19,19.39a122.77,122.77,0,0,0,1.23,15.08c.68,4.2,1.69,7.52,3.39,9.78s4.11,3.36,7.58,3.36,9.2-2.27,16.37-5.7,17.42-9.23,23.76-13,17-10.65,23.23-15.32c6.42-4.8,10.66-7.69,10.66-13.58Z" transform="translate(-157.73 -319.61)"/><rect class="cls-4" x="1041.6" y="44.88" width="3.59" height="14.39" rx="1.13"/><rect class="cls-4" x="1002.04" y="19.71" width="3.6" height="21.57" rx="1.13"/><path class="cls-4" d="M1014,73.64h1.33a1.14,1.14,0,0,1,1.14,1.14v1.33a1.13,1.13,0,0,1-1.13,1.13H1014a1.14,1.14,0,0,1-1.14-1.14V74.78A1.13,1.13,0,0,1,1014,73.64Z"/><path class="cls-4" d="M1132.14,353.7h15.72a1.14,1.14,0,0,0,1.13-1.13v-6.06h6.06a1.13,1.13,0,0,0,1.13-1.12v-8.53a1.14,1.14,0,0,0-1.13-1.14h-1.34a1.14,1.14,0,0,0-1.13,1.14v6.06H1149v-9.66a1.13,1.13,0,0,0-1.13-1.13h-8.53a1.13,1.13,0,0,0-1.13,1.13v12.13a1.14,1.14,0,0,0,1.14,1.12h6.05v3.59H1134.6V336.86a1.12,1.12,0,0,0-1.13-1.13h-1.33a1.13,1.13,0,0,0-1.13,1.13v15.71A1.14,1.14,0,0,0,1132.14,353.7Zm13.25-10.78h-3.6v-7.19h3.59Z" transform="translate(-157.73 -319.61)"/><path class="cls-4" d="M1194.6,360.9h-1.33a1.14,1.14,0,0,0-1.13,1.13v16.85h-6.06a1.14,1.14,0,0,0-1.14,1.13v6.06h-3.59V380a1.13,1.13,0,0,0-1.13-1.14h-12.12A1.14,1.14,0,0,0,1167,380v1.33a1.14,1.14,0,0,0,1.13,1.13h9.66v3.6h-14.38V375.28H1173a1.14,1.14,0,0,0,1.14-1.13v-1.33a1.14,1.14,0,0,0-1.14-1.14h-12.11a1.14,1.14,0,0,0-1.14,1.14v15.71a1.14,1.14,0,0,0,1.14,1.13h16.84v2.47a1.14,1.14,0,0,0,1.13,1.13h1.34a1.14,1.14,0,0,0,1.13-1.13v-2.47h6.05a1.15,1.15,0,0,0,1.14-1.14v-6h6.06a1.13,1.13,0,0,0,1.13-1.13V362A1.13,1.13,0,0,0,1194.6,360.9Z" transform="translate(-157.73 -319.61)"/><path class="cls-4" d="M1165.83,393.26h-8.53a1.13,1.13,0,0,0-1.12,1.13v6.06H1134.6v-3.6h16.85a1.14,1.14,0,0,0,1.13-1.13V394.4a1.14,1.14,0,0,0-1.13-1.14h-19.32a1.12,1.12,0,0,0-1.12,1.13v8.53a1.14,1.14,0,0,0,1.13,1.13h26.5a1.13,1.13,0,0,0,1.13-1.13v-6.06h3.6v2.46a1.12,1.12,0,0,0,1.12,1.13h1.34a1.12,1.12,0,0,0,1.13-1.13v-4.93A1.13,1.13,0,0,0,1165.83,393.26Z" transform="translate(-157.73 -319.61)"/><path class="cls-4" d="M1137,407.64h-1.26a1.17,1.17,0,0,0-1.17,1.16v1.28a1.16,1.16,0,0,0,1.17,1.16H1137a1.16,1.16,0,0,0,1.17-1.16V408.8A1.17,1.17,0,0,0,1137,407.64Z" transform="translate(-157.73 -319.61)"/><rect class="cls-4" x="984.06" y="88.03" width="3.6" height="3.6" rx="1.16"/><rect class="cls-4" x="973.28" y="66.46" width="3.6" height="3.59" rx="1.16"/><path class="cls-4" d="M1139.36,386.07a1.16,1.16,0,0,0-1.16,1.16v1.27a1.16,1.16,0,0,0,1.16,1.16h1.27a1.16,1.16,0,0,0,1.16-1.16v-1.27a1.16,1.16,0,0,0-1.16-1.16Z" transform="translate(-157.73 -319.61)"/><path class="cls-4" d="M1145.39,387.23v1.27a1.16,1.16,0,0,0,1.16,1.16H1155a1.14,1.14,0,0,0,1.14-1.13V372.82a1.14,1.14,0,0,0-1.14-1.14h-1.33a1.14,1.14,0,0,0-1.13,1.14v13.25h-6A1.16,1.16,0,0,0,1145.39,387.23Z" transform="translate(-157.73 -319.61)"/><rect class="cls-4" x="1020.02" y="52.07" width="3.59" height="3.6" rx="1.16"/><path class="cls-4" d="M1175.32,350.1h1.27a1.15,1.15,0,0,0,1.16-1.15v-1.27a1.17,1.17,0,0,0-1.16-1.17h-1.27a1.17,1.17,0,0,0-1.16,1.17V349A1.15,1.15,0,0,0,1175.32,350.1Z" transform="translate(-157.73 -319.61)"/><path class="cls-4" d="M1155,350.1h-1.26a1.17,1.17,0,0,0-1.17,1.17v1.27a1.16,1.16,0,0,0,1.17,1.16H1155a1.16,1.16,0,0,0,1.17-1.16v-1.27A1.17,1.17,0,0,0,1155,350.1Z" transform="translate(-157.73 -319.61)"/><path class="cls-4" d="M1147.83,364.49h-1.28a1.17,1.17,0,0,0-1.16,1.16v1.28a1.17,1.17,0,0,0,1.16,1.16h1.28a1.17,1.17,0,0,0,1.16-1.16v-1.28A1.17,1.17,0,0,0,1147.83,364.49Z" transform="translate(-157.73 -319.61)"/><rect class="cls-4" x="1027.21" y="52.07" width="3.59" height="3.6" rx="1.16"/><path class="cls-4" d="M1132.14,382.47h15.72a1.14,1.14,0,0,0,1.13-1.13v-8.52a1.14,1.14,0,0,0-1.13-1.14h-6.06V360.9h10.78v6a1.17,1.17,0,0,0,1.17,1.16h33.66a1.14,1.14,0,0,0,1.13-1.13V354.83a1.14,1.14,0,0,0-1.13-1.13h-8.52a1.14,1.14,0,0,0-1.14,1.13v2.47h-7.19V344.05a1.14,1.14,0,0,0-1.13-1.13h-1.34a1.14,1.14,0,0,0-1.13,1.13v20.44h-10.78v-6.06a1.14,1.14,0,0,0-1.14-1.13h-15.71a1.14,1.14,0,0,0-1.13,1.13v15.72a1.14,1.14,0,0,0,1.13,1.13h6.06v3.59H1134.6V358.43a1.14,1.14,0,0,0-1.13-1.13h-1.33a1.13,1.13,0,0,0-1.13,1.13v22.91A1.14,1.14,0,0,0,1132.14,382.47Zm38.42-21.57h10.79v-3.6h3.59v7.19h-14.38Z" transform="translate(-157.73 -319.61)"/><path class="cls-1" d="M1097.12,344.25c-.42,0-.92-.12-.92-.34V341c0-.2.5-.34.92-.34h2.62c.89,0,1.12,0,1.12-.93v-4.46c0-1.15,0-2.42-.06-3.77a.53.53,0,0,1,.57-.53h2.36a.54.54,0,0,1,.61.53c0,1.21.06,2.08.06,2.9v3.73c0,2.39,0,4-.11,5a1,1,0,0,1-.65.82,25.09,25.09,0,0,1-4.52.31Zm1.63,3.08a.65.65,0,0,1,.65-.64h2.16a.68.68,0,0,1,.7.64v2.25a.67.67,0,0,1-.7.59h-2.16a.65.65,0,0,1-.65-.59Zm-11.93-3.08c-.42,0-.93-.12-.93-.34V341c0-.2.51-.34.93-.34h2.64c.64,0,1.63-.09,1.63-1v-8.11a.53.53,0,0,1,.56-.54h2.44a.52.52,0,0,1,.53.54v8.59c.23.39,1.33.48,1.83.48h.67v3.6h-.33a6.56,6.56,0,0,1-4-1,7.23,7.23,0,0,1-3.87,1Zm4.24-18a.66.66,0,0,1,.67-.65H1094a.63.63,0,0,1,.62.65v2.19a.63.63,0,0,1-.65.62h-2.19a.62.62,0,0,1-.67-.62Zm-24.35,9.1c.31,0,.48.17.48.53s0,1.07,0,1.27c0,2.69,1.34,3.48,5.08,3.48h6.8c.67,0,1.6-.09,1.6-1V323.46a.57.57,0,0,1,.56-.59h2.53a.57.57,0,0,1,.56.59v16.71c.23.39,1.24.48,1.77.48h.73v3.6h-.34a8.41,8.41,0,0,1-3.87-.79,7.84,7.84,0,0,1-3.88.79h-7.08c-6,0-7.78-2.22-7.78-6.13a12.92,12.92,0,0,1,.17-2.19c.11-.42.23-.56.59-.56Zm4-2.27c0-.23.17-.34.51-.34h.42a3.37,3.37,0,0,1-.36-1.57c0-1.83,1.15-2.81,3.17-2.81a5.59,5.59,0,0,1,1.4.16.44.44,0,0,1,.37.48v1c0,.26-.11.37-.37.37s-.9-.06-1.12-.06a1.1,1.1,0,0,0-1.26,1.18,1.49,1.49,0,0,0,.44,1.16H1076q.51,0,.51.39v1.15c0,.25-.17.39-.51.39h-4.8c-.34,0-.51-.14-.51-.39ZM1050.9,325c-.32,0-.45-.12-.45-.34v-.82c0-.19.13-.28.45-.28h.53a2.84,2.84,0,0,1-.45-1.6c0-1.57.93-2.36,2.81-2.36a4.91,4.91,0,0,1,1.32.17c.2,0,.31.14.31.28v.76c0,.2-.11.28-.37.28h-1c-1,0-1.41.31-1.41,1.13a1.51,1.51,0,0,0,.59,1.32h2c.31,0,.45.08.45.28v.84c0,.22-.14.34-.45.34Zm.5,2.33a.54.54,0,0,1,.56-.56h2.53a.54.54,0,0,1,.56.56v16.31a.57.57,0,0,1-.56.6H1052a.57.57,0,0,1-.56-.6Zm-12.5,16.91c-.42,0-.92-.12-.92-.34V341c0-.2.5-.34.92-.34h2.9c.89,0,1.12,0,1.12-.93v-4.38c0-1.15,0-2.41-.06-3.76a.53.53,0,0,1,.57-.54h2.35a.55.55,0,0,1,.62.54c0,1.2.06,2.08.06,2.89v3.65c0,2.39,0,4-.12,5a1,1,0,0,1-.64.82,25.17,25.17,0,0,1-4.52.31Zm1.91,3.08a.65.65,0,0,1,.65-.64h2.16a.69.69,0,0,1,.71.64v2.25a.69.69,0,0,1-.71.59h-2.16a.65.65,0,0,1-.65-.59Zm-15.39.88q0-.48.51-.48h2.55c2.92,0,4.47-.51,4.47-2.64v-.84h-2c-4.08,0-6.52-2.11-6.52-6.18v-.57c0-4.4,2.7-6.93,7.53-6.93a16.3,16.3,0,0,1,4.13.47c.36.15.48.23.48.54v9.07H1039v3.6h-2.53v.95c-.36,4.61-3.37,5.73-7.22,5.73a25.42,25.42,0,0,1-3.37-.14c-.36-.09-.45-.23-.45-.53Zm2.5-10.59c0,2.13.87,3.14,3,3.14H1033v-6.85a15.88,15.88,0,0,0-1.72-.08,3.1,3.1,0,0,0-3.37,3.42Zm-18.4-12.76a.66.66,0,0,1,.68-.64h2.22a.63.63,0,0,1,.61.64v2.2a.63.63,0,0,1-.64.61h-2.19a.63.63,0,0,1-.68-.61Zm-12,16.29a.52.52,0,0,1,.56-.5h3.66V323.46a.55.55,0,0,1,.56-.59h2.55a.55.55,0,0,1,.54.59V332c2-1.35,4.86-1.52,6.17-1.52,4.81,0,7.9,2,7.9,7.53v1.15a21.79,21.79,0,0,1-.37,4.1,1,1,0,0,1-.9.81c-1,.15-5.22.15-6.82.15H998.09a.52.52,0,0,1-.56-.51Zm17.84-.42c.47,0,.56-.3.56-1.85v-.42c0-3.43-1.6-4.52-5.28-4.52-1.27,0-3.85.17-5.25,1.21v5.53c.87,0,1.93.05,3.37.05ZM972,338.35a25.41,25.41,0,0,1,.36-3.71c.06-.37.26-.56.57-.56h2.16c.36,0,.5.17.48.53-.09.82-.14,1.74-.14,2.28,0,3.9.64,6.82,5.67,6.82a18.23,18.23,0,0,0,2.61-.17c.09-1.88.09-2.75.09-4.27V336.8c0-4.27,2.58-6.23,7.21-6.23a23.46,23.46,0,0,1,4.05.36c.31.09.48.2.48.56v8.18c0,.81.31,1,1.29,1h1.29v3.6h-2.22c-2.58,0-3.93-.62-3.93-3.54V334a7.29,7.29,0,0,0-1.38-.12c-2.13,0-3.23.82-3.23,3.29v4.63c0,1.35,0,3.09-.11,4.41,0,.34-.2.54-.62.62a36.91,36.91,0,0,1-5.61.42c-6.44,0-9-3.06-9-8.87Zm4.52,11.4a.61.61,0,0,1,.65-.59h1.88a.6.6,0,0,1,.64.59v2a.64.64,0,0,1-.64.56H977.2a.63.63,0,0,1-.65-.56Zm5.23,0a.6.6,0,0,1,.62-.59h1.9a.6.6,0,0,1,.62.59v2a.62.62,0,0,1-.62.56h-1.9a.62.62,0,0,1-.62-.56Zm-22.13-26.32a.54.54,0,0,1,.56-.56h2.52a.55.55,0,0,1,.57.56v20.22a.58.58,0,0,1-.57.6h-2.52a.57.57,0,0,1-.56-.6ZM947.9,341c0-.2.51-.34.93-.34h2.47c.9,0,1.1,0,1.1-.93V323.46a.57.57,0,0,1,.56-.59h2.56a.54.54,0,0,1,.53.59v16.32c0,1,0,2.33-.14,3.34a1,1,0,0,1-.65.82,26.6,26.6,0,0,1-4.63.31h-1.8c-.42,0-.93-.12-.93-.34Zm-10.28,0c0-.2.51-.34.93-.34h2.61c.65,0,1.63-.09,1.63-1v-8.11a.53.53,0,0,1,.57-.54h2.44a.52.52,0,0,1,.53.54v8.59c.23.39,1.32.48,1.83.48h.67v3.6h-.34a6.55,6.55,0,0,1-4-1,7.25,7.25,0,0,1-3.88,1h-2.08c-.42,0-.93-.12-.93-.34Zm2.65-14.75a.66.66,0,0,1,.67-.65h1.94a.69.69,0,0,1,.7.65v2.19a.7.7,0,0,1-.7.62h-1.94a.65.65,0,0,1-.67-.62Zm5.19,0a.69.69,0,0,1,.67-.65h2a.64.64,0,0,1,.65.65v2.19a.63.63,0,0,1-.65.62h-2a.68.68,0,0,1-.67-.62Zm-23.93,18c-.45,0-.92-.2-.92-.34V341c0-.2.5-.34.92-.34h12.22l-1.32-2.92c-1.1-2.39-3-3.9-6.57-3.9-.26,0-1.1,0-1.52.05s-.59-.11-.59-.45v-2.08c0-.28.2-.45.56-.53a12.51,12.51,0,0,1,2.75-.25c4.1,0,7.05,1.63,9.3,6.71.59,1.35,1.13,2.69,1.32,3a.67.67,0,0,0,.65.39h.28v3.6Zm5.9,3.08a.65.65,0,0,1,.64-.64h2.17a.68.68,0,0,1,.7.64v2.25a.68.68,0,0,1-.7.59h-2.17a.64.64,0,0,1-.64-.59Zm-12-23.9a.57.57,0,0,1,.59-.56h2.5a.53.53,0,0,1,.56.56v15.79c0,1.26.54,1.43,1.58,1.43h.92v3.6h-2c-2.56,0-4.19-.68-4.19-4Zm-11.6,24.8c0-.28.17-.42.48-.42h.59c2.11,0,2.86-.2,2.86-2.5V331.58a.53.53,0,0,1,.56-.54h2.45a.52.52,0,0,1,.53.54v13.31a8.47,8.47,0,0,1-.64,3.85c-.87,1.6-2.31,2.19-4.66,2.19a12.76,12.76,0,0,1-1.77-.09.47.47,0,0,1-.4-.53Zm-24.71-9.88a24.17,24.17,0,0,1,.39-3.71c.08-.42.17-.56.59-.56h2.16c.31,0,.48.17.48.53-.09.82-.17,1.74-.17,2.28,0,3.9.64,6.82,5.68,6.82a18.34,18.34,0,0,0,2.61-.17c.08-1.88.08-2.75.08-4.27V336.8c0-4.3,2.56-6.23,7.39-6.23a21.9,21.9,0,0,1,4,.36c.3.09.47.2.47.56v12.16a.56.56,0,0,1-.56.6h-2.47a.55.55,0,0,1-.53-.6V334a9.55,9.55,0,0,0-1.49-.12c-2.14,0-3.23.82-3.23,3.29v4.63c0,1.35,0,3.09-.12,4.41,0,.34-.19.54-.61.62a37.36,37.36,0,0,1-5.62.42c-6.43,0-9-3.06-9-8.87Zm4.55,11.4a.59.59,0,0,1,.64-.59h1.85a.59.59,0,0,1,.65.59v2a.63.63,0,0,1-.65.56h-1.85a.61.61,0,0,1-.64-.56Zm5.19,0a.61.61,0,0,1,.65-.59h1.91a.6.6,0,0,1,.62.59v2a.62.62,0,0,1-.62.56h-1.91a.63.63,0,0,1-.65-.56Zm73.87,9.32H945.09c-.53,0-2,.51-2,2.81V416c0,2.52,2,2.52,2,2.52h17.59c17.75,0,30-11.09,30-29.57,0-18.82-12.27-29.86-30-29.86Zm-1,52.16H951.08V366.32h10.56c13.56,0,22.07,8.09,22.07,22.61,0,14.21-8.51,22.3-22.07,22.3Zm91.64-5.59c-.67-1.21-1.74-.7-2.41,0a25.59,25.59,0,0,1-16.57,6c-13.06,0-22.08-10.48-22.08-23.31,0-12.25,8.51-22.44,21.57-22.44a26.16,26.16,0,0,1,14.94,4.69c2.14,1.29,2.62,1.29,3.88,0,.67-1.27,1.71-3,1.71-3s1.24-1.68,0-2.55c-3-1.91-9.83-6.72-20.53-6.72-17.3,0-30.08,13-30.08,30,0,17.27,12.22,30.81,30.08,30.81a33.21,33.21,0,0,0,21.77-7.95c1.29-.81.76-1.57.25-2.58a26.65,26.65,0,0,0-2.53-3Zm44.63-18.54c4.81-1.94,7.78-6.71,7.78-12.69,0-9.86-7.27-15.34-17.52-15.34h-18.09c-2.19,0-2.7,2.31-2.7,2.81V416c0,.75,0,2.52,2.7,2.52h18.56c10.54,0,19-5.53,19-17.07,0-6.21-3.57-12.25-9.78-14.33Zm-22-20.78h12.28c5.5,0,9,3.79,9,9.1,0,5-3.51,8.68-9,8.68h-12.28Zm13.26,44.91h-13.26V390.92h13.26c6.26,0,10,4.3,10,10.28,0,6.21-3.77,10-10,10ZM911.59,361.88c-.84-1.8-1.24-2.81-3.82-2.81h-5c-2.28,0-3.06,1-3.74,2.81-.53,1.43-21.31,54.85-21.31,54.85a1.81,1.81,0,0,0,2,1.77h5.31a2.07,2.07,0,0,0,1.71-1.26l5.76-15.81h25.61l5.7,15.81a2,2,0,0,0,1.75,1.26h5c2.17,0,2.17-1.77,2.17-1.77s-20.65-53.42-21.21-54.85Zm-16.51,32.83L901,378.15l4.3-10.79,4.18,10.79,5.81,16.56Zm97.37-47.38a.65.65,0,0,1,.64-.64h2.17a.68.68,0,0,1,.7.64v2.25a.68.68,0,0,1-.7.59h-2.17a.64.64,0,0,1-.64-.59Z" transform="translate(-157.73 -319.61)"/></svg>