<svg id="Close" xmlns="http://www.w3.org/2000/svg" width="20" height="20" viewBox="0 0 20 20">
  <path id="Combined-Shape" d="M10,20A10,10,0,1,1,20,10,10.011,10.011,0,0,1,10,20Zm.261-8.325h0L13.8,15.21a.983.983,0,0,0,.7.311,1.069,1.069,0,0,0,.952-.662A.942.942,0,0,0,15.21,13.8l-3.535-3.535L15.21,6.725a.942.942,0,0,0,.237-1.062A1.07,1.07,0,0,0,14.495,5a.982.982,0,0,0-.7.311L10.261,8.846,6.725,5.311A.981.981,0,0,0,6.027,5a1.07,1.07,0,0,0-.953.663.941.941,0,0,0,.237,1.062l3.535,3.536L5.311,13.8a.942.942,0,0,0-.237,1.062,1.07,1.07,0,0,0,.953.663.982.982,0,0,0,.7-.311l3.535-3.534Z" transform="translate(0 0)" fill="#58606e"/>
</svg>
