<?xml version="1.0" encoding="UTF-8"?>
<svg width="20px" height="20px" viewBox="0 0 20 20" version="1.1" xmlns="http://www.w3.org/2000/svg" xmlns:xlink="http://www.w3.org/1999/xlink">
    <!-- Generator: Sketch 52.5 (67469) - http://www.bohemiancoding.com/sketch -->
    <title>Close</title>
    <desc>Created with Sketch.</desc>
    <g id="Close" stroke="none" stroke-width="1" fill="none" fill-rule="evenodd">
        <path d="M10,20 C4.4771525,20 0,15.5228475 0,10 C0,4.4771525 4.4771525,-2.15383267e-14 10,-2.15383267e-14 C15.5228475,-2.15383267e-14 20,4.4771525 20,10 C20,15.5228475 15.5228475,20 10,20 Z M11.6748829,10.2606693 L15.2104168,6.7251354 C16.1532258,5.78232635 14.7390122,4.36811279 13.7962032,5.31092183 L10.2606693,8.84645574 L6.7251354,5.31092183 C5.78232635,4.36811279 4.36811279,5.78232635 5.31092183,6.7251354 L8.84645574,10.2606693 L5.31092183,13.7962032 C4.36811279,14.7390122 5.78232635,16.1532258 6.7251354,15.2104168 L10.2606693,11.6748829 L13.7962032,15.2104168 C14.7390122,16.1532258 16.1532258,14.7390122 15.2104168,13.7962032 L11.6748829,10.2606693 Z" id="Combined-Shape" fill="#FFFFFF"></path>
    </g>
</svg>