<?xml version="1.0" encoding="utf-8"?>
<!-- Generator: Adobe Illustrator 24.0.2, SVG Export Plug-In . SVG Version: 6.00 Build 0)  -->
<svg version="1.1" id="Layer_1" xmlns="http://www.w3.org/2000/svg" xmlns:xlink="http://www.w3.org/1999/xlink" x="0px" y="0px"
	 viewBox="0 0 267 139" style="enable-background:new 0 0 267 139;" xml:space="preserve">
<style type="text/css">
	.st0{fill:#FFFFFF;}
	.st1{fill:none;stroke:#FFFFFF;stroke-width:2.5;stroke-linecap:round;stroke-miterlimit:10;}
	.st2{fill:#AA2931;}
	.st3{fill:#DF352A;}
</style>
<g>
	<g>
		<path class="st0" d="M7.98,128.63l-2.29,6.95H2.73l7.51-22.09h3.44l7.54,22.09h-3.05l-2.36-6.95H7.98z M15.22,126.4l-2.16-6.36
			c-0.49-1.44-0.82-2.75-1.15-4.03h-0.07c-0.33,1.31-0.69,2.66-1.11,4l-2.16,6.39H15.22z"/>
		<path class="st0" d="M25.12,113.74c1.38-0.23,3.18-0.43,5.47-0.43c2.82,0,4.88,0.66,6.2,1.84c1.21,1.05,1.93,2.66,1.93,4.62
			c0,2-0.59,3.57-1.7,4.72c-1.51,1.61-3.97,2.43-6.75,2.43c-0.85,0-1.64-0.03-2.29-0.2v8.85h-2.85V113.74z M27.97,124.4
			c0.62,0.16,1.41,0.23,2.36,0.23c3.44,0,5.54-1.67,5.54-4.72c0-2.92-2.07-4.33-5.21-4.33c-1.25,0-2.2,0.1-2.69,0.23V124.4z"/>
		<path class="st0" d="M46.06,113.48v22.09h-2.85v-22.09H46.06z"/>
		<path class="st0" d="M77.27,125.87c-0.16-3.08-0.36-6.79-0.33-9.54h-0.1c-0.75,2.59-1.67,5.34-2.79,8.39l-3.9,10.72h-2.16
			l-3.57-10.52c-1.05-3.11-1.93-5.97-2.56-8.59H61.8c-0.07,2.75-0.23,6.46-0.43,9.77l-0.59,9.47h-2.72l1.54-22.09h3.64l3.77,10.69
			c0.92,2.72,1.67,5.15,2.23,7.44h0.1c0.56-2.23,1.34-4.66,2.33-7.44l3.93-10.69h3.64l1.38,22.09h-2.79L77.27,125.87z"/>
		<path class="st0" d="M88.91,128.63l-2.29,6.95h-2.95l7.51-22.09h3.44l7.54,22.09H99.1l-2.36-6.95H88.91z M96.15,126.4l-2.16-6.36
			c-0.49-1.44-0.82-2.75-1.15-4.03h-0.07c-0.33,1.31-0.69,2.66-1.11,4l-2.16,6.39H96.15z"/>
		<path class="st0" d="M106.05,113.78c1.44-0.3,3.51-0.46,5.47-0.46c3.05,0,5.02,0.56,6.39,1.8c1.11,0.98,1.74,2.49,1.74,4.2
			c0,2.92-1.84,4.85-4.16,5.64v0.1c1.7,0.59,2.72,2.16,3.25,4.46c0.72,3.08,1.25,5.21,1.7,6.06h-2.95
			c-0.36-0.62-0.85-2.52-1.48-5.28c-0.66-3.05-1.84-4.2-4.43-4.29h-2.69v9.57h-2.85V113.78z M108.9,123.84h2.92
			c3.05,0,4.98-1.67,4.98-4.2c0-2.85-2.07-4.1-5.08-4.13c-1.38,0-2.36,0.13-2.82,0.26V123.84z"/>
		<path class="st0" d="M124.34,113.48h2.85v10.65h0.1c0.59-0.85,1.18-1.64,1.74-2.36l6.75-8.29h3.54l-8,9.38l8.62,12.72h-3.38
			l-7.28-10.85l-2.1,2.43v8.42h-2.85V113.48z"/>
		<path class="st0" d="M154.2,125.22h-8.59v7.97h9.57v2.39h-12.42v-22.09h11.93v2.39h-9.08v6.98h8.59V125.22z"/>
		<path class="st0" d="M164.27,115.91h-6.72v-2.43h16.36v2.43h-6.75v19.67h-2.88V115.91z"/>
		<path class="st0" d="M177.02,113.74c1.38-0.23,3.18-0.43,5.47-0.43c2.82,0,4.88,0.66,6.2,1.84c1.21,1.05,1.93,2.66,1.93,4.62
			c0,2-0.59,3.57-1.7,4.72c-1.51,1.61-3.97,2.43-6.75,2.43c-0.85,0-1.64-0.03-2.29-0.2v8.85h-2.85V113.74z M179.87,124.4
			c0.62,0.16,1.41,0.23,2.36,0.23c3.44,0,5.54-1.67,5.54-4.72c0-2.92-2.07-4.33-5.21-4.33c-1.25,0-2.2,0.1-2.69,0.23V124.4z"/>
		<path class="st0" d="M195.11,113.48h2.85v19.7h9.44v2.39h-12.29V113.48z"/>
		<path class="st0" d="M214.81,128.63l-2.29,6.95h-2.95l7.51-22.09h3.44l7.54,22.09h-3.05l-2.36-6.95H214.81z M222.05,126.4
			l-2.16-6.36c-0.49-1.44-0.82-2.75-1.15-4.03h-0.07c-0.33,1.31-0.69,2.66-1.11,4l-2.16,6.39H222.05z"/>
		<path class="st0" d="M246.9,134.86c-1.05,0.52-3.15,1.05-5.84,1.05c-6.23,0-10.92-3.93-10.92-11.18c0-6.92,4.69-11.6,11.54-11.6
			c2.75,0,4.49,0.59,5.24,0.98l-0.69,2.33c-1.08-0.52-2.62-0.92-4.46-0.92c-5.18,0-8.62,3.31-8.62,9.11c0,5.41,3.11,8.88,8.49,8.88
			c1.74,0,3.51-0.36,4.66-0.92L246.9,134.86z"/>
		<path class="st0" d="M262.57,125.22h-8.59v7.97h9.57v2.39h-12.42v-22.09h11.93v2.39h-9.08v6.98h8.59V125.22z"/>
	</g>
	<line class="st1" x1="2.73" y1="97.25" x2="265" y2="97.25"/>
	<g>
		<g>
			<path class="st2" d="M264.06,42.41c0-4.62-3.33-6.88-8.35-10.64c-4.9-3.66-13.24-9.06-18.21-12.01
				c-4.96-2.96-13.04-7.52-18.61-10.19c-5.62-2.69-10.11-4.47-12.83-4.47c-2.71,0-4.6,0.85-5.93,2.63
				c-1.33,1.77-2.13,4.38-2.66,7.67c-0.53,3.29-0.81,7.27-0.96,11.81c-0.14,4.55-0.15,15.2-0.15,15.2l0,0c0,0,0.01,10.65,0.15,15.2
				c0.15,4.54,0.43,8.52,0.96,11.81c0.53,3.29,1.33,5.89,2.66,7.67c1.33,1.78,3.22,2.63,5.93,2.63c2.72,0,7.21-1.78,12.83-4.47
				c5.58-2.67,13.65-7.23,18.61-10.19c4.97-2.96,13.31-8.35,18.21-12.01C260.73,49.29,264.06,47.03,264.06,42.41L264.06,42.41
				L264.06,42.41z"/>
		</g>
		<g>
			<path class="st3" d="M256.64,36.78h-1.04c-0.49,0-0.89,0.4-0.89,0.89v9.49c0,0.49,0.4,0.89,0.89,0.89h1.04
				c0.49,0,0.89-0.4,0.89-0.89v-9.49C257.52,37.18,257.12,36.78,256.64,36.78z"/>
			<path class="st3" d="M224.6,33.96h1.05c0.49,0,0.89-0.4,0.89-0.89V17.94c0-0.49-0.4-0.89-0.89-0.89h-1.05
				c-0.49,0-0.89,0.39-0.89,0.89v15.13C223.71,33.56,224.11,33.96,224.6,33.96z"/>
			<path class="st3" d="M234.1,59.32h-1.04c-0.49,0-0.89,0.4-0.89,0.89v1.04c0,0.49,0.39,0.89,0.89,0.89h1.04
				c0.49,0,0.89-0.4,0.89-0.89v-1.04C234.99,59.72,234.59,59.32,234.1,59.32z"/>
			<path class="st3" d="M202.06,28.32h12.31c0.49,0,0.89-0.4,0.89-0.89v-4.75h4.75c0.49,0,0.89-0.4,0.89-0.88v-6.68
				c0-0.49-0.4-0.89-0.89-0.89h-1.04c-0.49,0-0.89,0.4-0.89,0.89v4.75h-2.82V12.3c0-0.49-0.4-0.88-0.89-0.88h-6.68
				c-0.49,0-0.88,0.4-0.88,0.89v9.5c0,0.48,0.4,0.88,0.89,0.88h4.74v2.82h-8.45V15.13c0-0.49-0.4-0.89-0.89-0.89h-1.04
				c-0.49,0-0.89,0.4-0.89,0.89v10.4v1.91C201.17,27.92,201.58,28.32,202.06,28.32z M212.44,19.87h-2.82l0-5.63h2.82V19.87z"/>
			<path class="st3" d="M251,33.96h-1.04c-0.48,0-0.88,0.4-0.88,0.89v13.2h-4.75c-0.49,0-0.89,0.4-0.89,0.89v4.75h-2.82l0-4.75
				c0-0.49-0.4-0.89-0.89-0.89h-9.5c-0.49,0-0.89,0.4-0.89,0.89v1.04c0,0.49,0.4,0.89,0.89,0.89h7.57v2.82h-11.27v-8.46h7.56
				c0.49,0,0.89-0.4,0.89-0.89V43.3c0-0.49-0.4-0.89-0.89-0.89h-9.49c-0.49,0-0.89,0.4-0.89,0.89v12.31c0,0.48,0.4,0.89,0.89,0.89
				h13.2v1.93c0,0.49,0.4,0.89,0.89,0.89h1.04c0.49,0,0.88-0.4,0.88-0.89V56.5h4.74c0.49,0,0.89-0.41,0.89-0.9v-4.74H251
				c0.49,0,0.89-0.4,0.89-0.89V34.85C251.89,34.36,251.49,33.96,251,33.96z"/>
			<path class="st3" d="M228.46,59.32h-6.69c-0.49,0-0.88,0.4-0.88,0.89v4.75h-16.9v-2.82h13.2c0.48,0,0.88-0.4,0.88-0.89v-1.04
				c0-0.49-0.4-0.89-0.88-0.89h-15.14c-0.48,0-0.88,0.4-0.88,0.88v6.68c0,0.49,0.41,0.88,0.89,0.88h20.76c0.49,0,0.89-0.4,0.89-0.88
				v-4.75h2.82v1.93c0,0.49,0.39,0.89,0.88,0.89h1.05c0.49,0,0.89-0.4,0.89-0.89v-3.86C229.35,59.72,228.95,59.32,228.46,59.32z"/>
			<path class="st3" d="M205.9,70.59h-0.99c-0.5,0-0.91,0.41-0.91,0.91v1c0,0.5,0.41,0.91,0.91,0.91h0.99c0.5,0,0.91-0.41,0.91-0.91
				v-1C206.81,71,206.4,70.59,205.9,70.59z"/>
			<path class="st3" d="M211.54,70.59h-1c-0.5,0-0.91,0.41-0.91,0.91v1c0,0.5,0.41,0.91,0.91,0.91h1c0.5,0,0.91-0.41,0.91-0.91v-1
				C212.44,71,212.04,70.59,211.54,70.59z"/>
			<path class="st3" d="M202.09,53.69c-0.5,0-0.91,0.41-0.91,0.91v0.99c0,0.5,0.41,0.91,0.91,0.91h0.99c0.5,0,0.91-0.41,0.91-0.91
				V54.6c0-0.5-0.41-0.91-0.91-0.91H202.09z"/>
			<path class="st3" d="M207.72,53.69c-0.5,0-0.91,0.41-0.91,0.91v1c0,0.5,0.41,0.91,0.91,0.91h1c0.5,0,0.91-0.41,0.91-0.91v-1
				c0-0.5-0.41-0.91-0.91-0.91H207.72z"/>
			<path class="st3" d="M212.44,54.59v1c0,0.5,0.41,0.91,0.91,0.91h5.63h1h0.02c0.49,0,0.89-0.4,0.89-0.89V43.3
				c0-0.49-0.39-0.89-0.89-0.89h-1.04c-0.49,0-0.89,0.4-0.89,0.89v10.39h-4.72C212.86,53.69,212.44,54.09,212.44,54.59z"/>
			<path class="st3" d="M238.71,42.41c-0.5,0-0.91,0.41-0.91,0.91v1c0,0.5,0.41,0.91,0.91,0.91h1c0.5,0,0.91-0.41,0.91-0.91v-1
				c0-0.5-0.41-0.91-0.91-0.91H238.71z"/>
			<path class="st3" d="M235.89,25.5h1c0.5,0,0.91-0.41,0.91-0.91v-1c0-0.5-0.41-0.92-0.91-0.92h-1c-0.5,0-0.91,0.41-0.91,0.92v1
				C234.99,25.1,235.4,25.5,235.89,25.5z"/>
			<path class="st3" d="M219.98,25.5h-0.99c-0.5,0-0.91,0.41-0.91,0.91v1c0,0.5,0.41,0.91,0.91,0.91h0.99c0.5,0,0.91-0.41,0.91-0.91
				v-1C220.9,25.92,220.49,25.5,219.98,25.5z"/>
			<path class="st3" d="M214.35,36.78h-1c-0.5,0-0.91,0.41-0.91,0.91v1c0,0.5,0.41,0.91,0.91,0.91h1c0.5,0,0.91-0.41,0.91-0.91v-1
				C215.26,37.19,214.86,36.78,214.35,36.78z"/>
			<path class="st3" d="M245.34,42.41h-0.99c-0.5,0-0.91,0.41-0.91,0.91v1c0,0.5,0.41,0.91,0.91,0.91h0.99
				c0.51,0,0.91-0.41,0.91-0.91v-1C246.25,42.82,245.85,42.41,245.34,42.41z"/>
			<path class="st3" d="M202.06,50.87h12.31c0.49,0,0.89-0.4,0.89-0.89V43.3c0-0.49-0.4-0.89-0.89-0.89h-4.75v-8.45h8.45v4.73
				c0,0.5,0.41,0.91,0.91,0.91h26.38c0.49,0,0.88-0.4,0.88-0.89v-9.5c0-0.49-0.39-0.89-0.88-0.89h-6.67c-0.49,0-0.89,0.4-0.89,0.89
				v1.93h-5.63V20.76c0-0.49-0.4-0.89-0.89-0.89h-1.04c-0.49,0-0.89,0.4-0.89,0.89v16.02h-8.45v-4.75c0-0.49-0.4-0.88-0.89-0.88
				H207.7c-0.49,0-0.89,0.4-0.89,0.88v12.32c0,0.48,0.4,0.88,0.89,0.88h4.75v2.81h-8.45l0-16.01c0-0.49-0.4-0.89-0.89-0.89h-1.04
				c-0.49,0-0.89,0.39-0.89,0.88v17.95C201.17,50.47,201.58,50.87,202.06,50.87z M232.17,33.96h8.45v-2.82h2.82v5.63h-11.27V33.96z"
				/>
		</g>
		<path class="st0" d="M174.63,20.91c-0.33,0-0.72-0.09-0.72-0.26v-2.29c0-0.15,0.4-0.26,0.72-0.26h2.05c0.7,0,0.88-0.02,0.88-0.73
			v-3.5c0-0.9-0.02-1.89-0.04-2.95c0-0.24,0.18-0.42,0.44-0.42h1.85c0.33,0,0.46,0.18,0.48,0.42c0.02,0.95,0.04,1.63,0.04,2.27v2.93
			c0,1.87,0,3.13-0.09,3.92c-0.07,0.29-0.15,0.48-0.51,0.64c-0.62,0.17-2.36,0.24-3.54,0.24H174.63z M175.9,23.33
			c0-0.29,0.24-0.51,0.51-0.51h1.69c0.29,0,0.55,0.22,0.55,0.51v1.76c0,0.24-0.26,0.46-0.55,0.46h-1.69c-0.26,0-0.51-0.22-0.51-0.46
			V23.33z M166.55,20.91c-0.33,0-0.72-0.09-0.72-0.26v-2.29c0-0.15,0.4-0.26,0.72-0.26h2.07c0.51,0,1.28-0.07,1.28-0.75v-6.36
			c0-0.24,0.17-0.42,0.44-0.42h1.91c0.24,0,0.42,0.18,0.42,0.42v6.73c0.17,0.31,1.04,0.38,1.43,0.38h0.53v2.82h-0.26
			c-1.12,0-2.35-0.13-3.12-0.75c-0.81,0.57-2.09,0.75-3.04,0.75H166.55z M169.87,6.83c0-0.29,0.24-0.51,0.53-0.51h1.74
			c0.26,0,0.48,0.22,0.48,0.51v1.72c0,0.26-0.22,0.49-0.51,0.49h-1.71c-0.33,0-0.53-0.22-0.53-0.49V6.83z M150.79,13.96
			c0.24,0,0.38,0.13,0.38,0.42c-0.02,0.33-0.02,0.84-0.02,0.99c0,2.11,1.06,2.73,3.98,2.73h5.33c0.53,0,1.25-0.07,1.25-0.75V4.63
			c0-0.26,0.2-0.46,0.44-0.46h1.98c0.24,0,0.44,0.2,0.44,0.46v13.09c0.18,0.31,0.97,0.38,1.38,0.38h0.57v2.82h-0.26
			c-0.88,0-2.16-0.11-3.04-0.62c-0.79,0.51-2.05,0.62-3.04,0.62h-5.55c-4.71,0-6.1-1.74-6.1-4.8c0-0.29,0.02-1.28,0.13-1.72
			c0.09-0.33,0.18-0.44,0.46-0.44H150.79z M153.94,12.18c0-0.18,0.13-0.26,0.4-0.26h0.33c-0.18-0.29-0.29-0.81-0.29-1.23
			c0-1.43,0.9-2.2,2.49-2.2c0.26,0,0.68,0.02,1.1,0.13c0.2,0.04,0.29,0.18,0.29,0.37v0.79c0,0.2-0.09,0.29-0.29,0.29
			c-0.17,0-0.7-0.04-0.88-0.04c-0.68,0-0.99,0.37-0.99,0.92c0,0.46,0.2,0.81,0.35,0.9h1.65c0.26,0,0.4,0.11,0.4,0.31v0.9
			c0,0.2-0.13,0.31-0.4,0.31h-3.76c-0.26,0-0.4-0.11-0.4-0.31V12.18z M138.4,5.84c-0.24,0-0.35-0.09-0.35-0.26V4.94
			c0-0.15,0.11-0.22,0.35-0.22h0.42c-0.24-0.35-0.35-0.81-0.35-1.26c0-1.23,0.73-1.85,2.2-1.85c0.24,0,0.68,0.02,1.04,0.13
			c0.15,0.02,0.24,0.11,0.24,0.22v0.59c0,0.15-0.09,0.22-0.29,0.22h-0.77c-0.77,0-1.1,0.24-1.1,0.88c0,0.51,0.2,0.88,0.46,1.03h1.54
			c0.24,0,0.35,0.07,0.35,0.22v0.66c0,0.18-0.11,0.26-0.35,0.26H138.4z M138.8,7.67c0-0.24,0.18-0.44,0.44-0.44h1.98
			c0.26,0,0.44,0.2,0.44,0.44v12.78c0,0.24-0.18,0.46-0.44,0.46h-1.98c-0.26,0-0.44-0.22-0.44-0.46V7.67z M129.01,20.91
			c-0.33,0-0.72-0.09-0.72-0.26v-2.29c0-0.15,0.39-0.26,0.72-0.26h2.27c0.7,0,0.88-0.02,0.88-0.73v-3.43c0-0.9-0.02-1.89-0.05-2.95
			c0-0.24,0.18-0.42,0.44-0.42h1.85c0.33,0,0.46,0.18,0.48,0.42c0.02,0.95,0.05,1.63,0.05,2.27v2.86c0,1.87,0,3.13-0.09,3.92
			c-0.07,0.29-0.15,0.48-0.51,0.64c-0.62,0.17-2.36,0.24-3.54,0.24H129.01z M130.5,23.33c0-0.29,0.24-0.51,0.51-0.51h1.7
			c0.29,0,0.55,0.22,0.55,0.51v1.76c0,0.24-0.26,0.46-0.55,0.46h-1.7c-0.26,0-0.51-0.22-0.51-0.46V23.33z M118.44,24.02
			c0-0.24,0.13-0.38,0.39-0.38h2c2.29,0,3.5-0.4,3.5-2.07v-0.66h-1.61c-3.19,0-5.1-1.65-5.1-4.84v-0.44c0-3.45,2.11-5.44,5.9-5.44
			c1.12,0,2.62,0.15,3.23,0.37c0.29,0.11,0.38,0.18,0.38,0.42v7.11h1.94v2.82h-1.98v0.75c-0.29,3.61-2.64,4.49-5.66,4.49
			c-0.51,0-2.31,0-2.64-0.11c-0.29-0.07-0.35-0.18-0.35-0.42V24.02z M120.4,15.72c0,1.67,0.68,2.46,2.33,2.46h1.65v-5.37
			c-0.42-0.04-0.88-0.07-1.34-0.07c-1.67,0-2.64,0.99-2.64,2.69V15.72z M105.99,5.73c0-0.29,0.24-0.51,0.53-0.51h1.74
			c0.26,0,0.48,0.22,0.48,0.51v1.72c0,0.26-0.22,0.48-0.51,0.48h-1.72c-0.33,0-0.53-0.22-0.53-0.48V5.73z M96.59,18.49
			c0-0.24,0.2-0.39,0.44-0.39h2.86V4.63c0-0.26,0.17-0.46,0.44-0.46h2c0.24,0,0.42,0.2,0.42,0.46v6.71
			c1.54-1.06,3.81-1.19,4.84-1.19c3.76,0,6.18,1.54,6.18,5.9v0.9c0,0.97-0.09,2.33-0.29,3.21c-0.07,0.29-0.24,0.57-0.7,0.64
			c-0.82,0.11-4.09,0.11-5.35,0.11H97.03c-0.24,0-0.44-0.16-0.44-0.4V18.49z M110.56,18.16c0.37,0,0.44-0.24,0.44-1.45v-0.33
			c0-2.68-1.25-3.54-4.14-3.54c-0.99,0-3.02,0.13-4.12,0.95v4.33c0.68,0.02,1.52,0.04,2.64,0.04H110.56z M76.61,16.29
			c0-0.64,0.11-1.96,0.29-2.9c0.04-0.29,0.2-0.44,0.44-0.44h1.69c0.29,0,0.4,0.13,0.38,0.42c-0.07,0.64-0.11,1.36-0.11,1.78
			c0,3.06,0.51,5.35,4.45,5.35c0.79,0,1.43-0.04,2.05-0.13c0.07-1.47,0.07-2.16,0.07-3.34v-1.94c0-3.35,2.02-4.89,5.65-4.89
			c1.17,0,2.4,0.13,3.17,0.29c0.24,0.07,0.37,0.15,0.37,0.44v6.4c0,0.64,0.24,0.77,1.01,0.77h1.01v2.82h-1.74
			c-2.02,0-3.08-0.48-3.08-2.77v-5.28c-0.44-0.07-0.66-0.09-1.08-0.09c-1.67,0-2.53,0.64-2.53,2.58v3.63c0,1.06-0.02,2.42-0.08,3.45
			c0,0.26-0.16,0.42-0.49,0.48c-1.23,0.2-2.79,0.33-4.4,0.33C78.63,23.25,76.61,20.85,76.61,16.29L76.61,16.29z M80.15,25.23
			c0-0.29,0.24-0.46,0.51-0.46h1.47c0.26,0,0.51,0.18,0.51,0.46v1.56c0,0.24-0.26,0.44-0.51,0.44h-1.47c-0.26,0-0.51-0.2-0.51-0.44
			V25.23z M84.24,25.23c0-0.29,0.24-0.46,0.49-0.46h1.5c0.24,0,0.48,0.18,0.48,0.46v1.56c0,0.24-0.24,0.44-0.48,0.44h-1.5
			c-0.24,0-0.49-0.2-0.49-0.44V25.23z M66.9,4.61c0-0.24,0.18-0.44,0.44-0.44h1.98c0.26,0,0.44,0.2,0.44,0.44v15.84
			c0,0.24-0.18,0.46-0.44,0.46h-1.98c-0.26,0-0.44-0.22-0.44-0.46V4.61z M57.7,18.36c0-0.15,0.4-0.26,0.73-0.26h1.94
			c0.7,0,0.86-0.02,0.86-0.73V4.63c0-0.26,0.2-0.46,0.44-0.46h2c0.24,0,0.42,0.2,0.42,0.46v12.79c0,0.79-0.02,1.83-0.11,2.62
			c-0.07,0.29-0.16,0.48-0.51,0.64c-0.64,0.17-2.44,0.24-3.63,0.24h-1.41c-0.33,0-0.73-0.09-0.73-0.26V18.36z M49.65,18.36
			c0-0.15,0.4-0.26,0.73-0.26h2.05c0.51,0,1.28-0.07,1.28-0.75v-6.36c0-0.24,0.18-0.42,0.44-0.42h1.91c0.24,0,0.42,0.18,0.42,0.42
			v6.73c0.18,0.31,1.04,0.38,1.43,0.38h0.53v2.82h-0.26c-1.12,0-2.35-0.13-3.12-0.75c-0.81,0.57-2.09,0.75-3.04,0.75h-1.63
			c-0.33,0-0.73-0.09-0.73-0.26V18.36z M51.72,6.81c0-0.28,0.24-0.51,0.53-0.51h1.52c0.29,0,0.55,0.22,0.55,0.51v1.72
			c0,0.26-0.29,0.48-0.55,0.48h-1.52c-0.29,0-0.53-0.22-0.53-0.48V6.81z M55.79,6.81c0-0.28,0.26-0.51,0.53-0.51h1.54
			c0.29,0,0.51,0.22,0.51,0.51v1.72c0,0.26-0.22,0.48-0.51,0.48h-1.54c-0.26,0-0.53-0.22-0.53-0.48V6.81z M37.04,20.91
			c-0.35,0-0.72-0.16-0.72-0.26v-2.29c0-0.15,0.39-0.26,0.72-0.26h9.57l-1.03-2.29c-0.86-1.87-2.35-3.06-5.15-3.06
			c-0.2,0-0.86,0.02-1.19,0.04c-0.31,0.02-0.46-0.09-0.46-0.35v-1.63c0-0.22,0.15-0.35,0.44-0.42c0.73-0.15,1.39-0.2,2.16-0.2
			c3.21,0,5.52,1.28,7.28,5.26c0.46,1.06,0.88,2.11,1.03,2.33c0.15,0.24,0.26,0.31,0.51,0.31h0.22v2.82H37.04z M41.66,23.33
			c0-0.29,0.24-0.51,0.51-0.51h1.7c0.29,0,0.55,0.22,0.55,0.51v1.76c0,0.24-0.26,0.46-0.55,0.46h-1.7c-0.26,0-0.51-0.22-0.51-0.46
			V23.33z M32.22,4.61c0-0.24,0.2-0.44,0.46-0.44h1.96c0.29,0,0.44,0.2,0.44,0.44v12.37c0,0.99,0.42,1.12,1.24,1.12h0.72v2.82H35.5
			c-2,0-3.28-0.53-3.28-3.1V4.61z M23.13,24.04c0-0.22,0.13-0.33,0.37-0.33h0.46c1.65,0,2.24-0.15,2.24-1.96V10.99
			c0-0.24,0.18-0.42,0.44-0.42h1.92c0.24,0,0.42,0.18,0.42,0.42v10.43c0,1.12-0.07,2.15-0.51,3.01c-0.68,1.25-1.81,1.72-3.65,1.72
			c-0.24,0-1.01,0-1.39-0.07c-0.2-0.04-0.31-0.18-0.31-0.42V24.04z M3.77,16.29c0-0.66,0.13-1.96,0.31-2.9
			c0.07-0.33,0.13-0.44,0.46-0.44h1.69c0.24,0,0.37,0.13,0.37,0.42C6.54,14,6.47,14.73,6.47,15.15c0,3.06,0.51,5.35,4.45,5.35
			c0.79,0,1.43-0.04,2.05-0.13c0.07-1.47,0.07-2.16,0.07-3.34v-1.94c0-3.37,2-4.89,5.79-4.89c1.03,0,2.31,0.11,3.13,0.29
			c0.24,0.07,0.37,0.15,0.37,0.44v9.53c0,0.26-0.18,0.46-0.44,0.46h-1.94c-0.24,0-0.42-0.2-0.42-0.46v-7.59
			c-0.53-0.07-0.75-0.09-1.17-0.09c-1.67,0-2.53,0.64-2.53,2.58v3.63c0,1.06-0.02,2.42-0.09,3.45c0,0.26-0.15,0.42-0.48,0.48
			c-1.23,0.2-2.82,0.33-4.4,0.33C5.81,23.25,3.77,20.85,3.77,16.29L3.77,16.29z M7.33,25.23c0-0.29,0.22-0.46,0.51-0.46h1.45
			c0.29,0,0.51,0.18,0.51,0.46v1.56c0,0.24-0.24,0.44-0.51,0.44H7.84c-0.29,0-0.51-0.2-0.51-0.44V25.23z M11.4,25.23
			c0-0.29,0.24-0.46,0.51-0.46h1.5c0.24,0,0.48,0.18,0.48,0.46v1.56c0,0.24-0.24,0.44-0.48,0.44h-1.5c-0.26,0-0.51-0.2-0.51-0.44
			V25.23z M69.28,32.53c0,0-12.99,0-13.78,0c-0.42,0-1.58,0.4-1.58,2.2v42.39c0,1.98,1.58,1.98,1.58,1.98h13.78
			c13.91,0,23.53-8.69,23.53-23.17C92.81,41.18,83.19,32.53,69.28,32.53L69.28,32.53z M68.47,73.4h-8.27V38.21h8.27
			c10.63,0,17.3,6.34,17.3,17.72C85.76,67.06,79.09,73.4,68.47,73.4L68.47,73.4z M140.27,69.02c-0.53-0.95-1.36-0.55-1.89,0
			c-1.98,1.78-6.67,4.73-12.99,4.73c-10.23,0-17.3-8.21-17.3-18.26c0-9.6,6.67-17.59,16.9-17.59c5.48,0,9.4,2.11,11.71,3.68
			c1.67,1.01,2.05,1.01,3.04,0c0.53-0.99,1.34-2.36,1.34-2.36s0.97-1.32,0-2c-2.33-1.5-7.7-5.26-16.09-5.26
			c-13.56,0-23.57,10.19-23.57,23.53c0,13.53,9.57,24.14,23.57,24.14c9.04,0,14.74-4.29,17.05-6.23c1.01-0.64,0.59-1.23,0.2-2.03
			C142.06,71.05,141.09,69.86,140.27,69.02L140.27,69.02z M175.24,54.5c3.77-1.52,6.1-5.26,6.1-9.95c0-7.72-5.7-12.02-13.73-12.02
			c0,0-12.15,0-14.17,0c-1.72,0-2.11,1.81-2.11,2.2v42.39c0,0.59,0,1.98,2.11,1.98c2.02,0,14.55,0,14.55,0
			c8.25,0,14.92-4.33,14.92-13.38C182.9,60.86,180.11,56.12,175.24,54.5L175.24,54.5z M157.99,38.21h9.62
			c4.31,0,7.06,2.97,7.06,7.13c0,3.89-2.75,6.8-7.06,6.8h-9.62V38.21z M168.38,73.4h-10.39V57.49h10.39c4.91,0,7.86,3.37,7.86,8.05
			C176.23,70.41,173.28,73.4,168.38,73.4L168.38,73.4z M29.25,34.73c-0.66-1.41-0.97-2.2-2.99-2.2h-3.89c-1.78,0-2.4,0.79-2.93,2.2
			c-0.42,1.12-16.7,42.98-16.7,42.98s0,1.39,1.56,1.39h4.16c0.92,0,1.34-0.99,1.34-0.99l4.51-12.39h20.07l4.47,12.39
			c0,0,0.4,0.99,1.37,0.99h3.96c1.7,0,1.7-1.39,1.7-1.39S29.69,35.86,29.25,34.73L29.25,34.73z M16.31,60.46l4.67-12.98l3.37-8.45
			l3.28,8.45l4.55,12.98H16.31z M92.61,23.33c0-0.29,0.24-0.51,0.51-0.51h1.7c0.29,0,0.55,0.22,0.55,0.51v1.76
			c0,0.24-0.26,0.46-0.55,0.46h-1.7c-0.26,0-0.51-0.22-0.51-0.46V23.33z"/>
	</g>
</g>
</svg>
