<?xml version="1.0" encoding="UTF-8"?>
<svg width="100px" height="100px" viewBox="0 0 100 100" version="1.1" xmlns="http://www.w3.org/2000/svg" xmlns:xlink="http://www.w3.org/1999/xlink">
    <title>487B00CD-8B20-411C-A7A5-8821DD00486B@1.5x</title>
    <defs>
        <filter color-interpolation-filters="auto" id="filter-1">
            <feColorMatrix in="SourceGraphic" type="matrix" values="0 0 0 0 0.266667 0 0 0 0 0.286275 0 0 0 0 0.301961 0 0 0 1.000000 0"></feColorMatrix>
        </filter>
    </defs>
    <g id="Post-MVP-Final" stroke="none" stroke-width="1" fill="none" fill-rule="evenodd">
        <g id="Homepage" transform="translate(-1124.000000, -3064.000000)">
            <g id="Fold-4" transform="translate(0.000000, 2700.000000)">
                <g id="Individual-Icon" transform="translate(1124.000000, 364.000000)">
                    <rect id="Rectangle" x="0" y="0" width="100" height="100"></rect>
                    <g filter="url(#filter-1)" stroke-linecap="round" stroke-linejoin="round">
                        <g transform="translate(4.000000, 5.000000)">
                            <path d="M43.5789474,69.6315789 C43.5789474,74.6021417 47.396309,78.6315789 52.1052632,78.6315789 C56.8142173,78.6315789 60.6315789,74.6021417 60.6315789,69.6315789 C60.6315789,64.6610162 56.8142173,60.6315789 52.1052632,60.6315789 C47.396309,60.6315789 43.5789474,64.6610162 43.5789474,69.6315789 Z" id="Path" stroke="#000000" stroke-width="4"></path>
                            <path d="M72.9473684,81 C72.9473684,85.9705627 76.76473,90 81.4736842,90 C86.1826384,90 90,85.9705627 90,81 C90,76.0294373 86.1826384,72 81.4736842,72 C76.76473,72 72.9473684,76.0294373 72.9473684,81 Z" id="Path" stroke="#000000" stroke-width="4"></path>
                            <path d="M72.9473684,52.1052632 C72.9473684,56.8142173 76.76473,60.6315789 81.4736842,60.6315789 C86.1826384,60.6315789 90,56.8142173 90,52.1052632 C90,47.396309 86.1826384,43.5789474 81.4736842,43.5789474 C76.76473,43.5789474 72.9473684,47.396309 72.9473684,52.1052632 Z" id="Path" stroke="#000000" stroke-width="4"></path>
                            <line x1="59.6842105" y1="65.3684211" x2="73.8947368" y2="56.8421053" id="Path" stroke="#000000" stroke-width="4"></line>
                            <line x1="59.6842105" y1="72.9473684" x2="72.9473684" y2="78.6315789" id="Path" stroke="#000000" stroke-width="4"></line>
                            <path d="M35.2054329,62.5263158 L0,62.5263158 C1.65465535,53.5928684 1.38083531,48.5360526 6.29394907,46.4336053 L23.4702886,39.0789474 L23.4702886,31.2631579 C23.4702886,31.2631579 19.7737182,29.8953947 19.7737182,21.4934211 C15.936326,21.4934211 15.936326,13.6776316 19.7737182,13.6776316 C19.7737182,12.5521579 13.3428591,4.18144737 21.4244618,5.86184211 C23.3451138,-1.95394737 42.2778132,-1.95394737 44.1984652,5.86184211 C44.7052804,8.59241621 44.0844381,11.4116707 42.4773107,13.6776316 C46.1973514,13.6776316 45.1803056,21.4934211 42.5046927,21.4934211 C42.5046927,29.8953947 39.1171477,31.2631579 39.1171477,31.2631579 L39.1171477,39.0789474 L56.2934873,46.4336053 C58.5527562,47.4163194 60.1776058,49.4538144 60.6315789,51.8733947" id="Path" stroke="#000000" stroke-width="4"></path>
                        </g>
                    </g>
                </g>
            </g>
        </g>
    </g>
</svg>