<?xml version="1.0" encoding="UTF-8"?>
<svg width="100px" height="100px" viewBox="0 0 100 100" version="1.1" xmlns="http://www.w3.org/2000/svg" xmlns:xlink="http://www.w3.org/1999/xlink">
    <title>F77D8EC6-BA7B-42AD-91DE-596E7B64F005@1.5x</title>
    <defs>
        <filter color-interpolation-filters="auto" id="filter-1">
            <feColorMatrix in="SourceGraphic" type="matrix" values="0 0 0 0 0.925490 0 0 0 0 0.003922 0 0 0 0 0.000000 0 0 0 1.000000 0"></feColorMatrix>
        </filter>
    </defs>
    <g id="Post-MVP-Final" stroke="none" stroke-width="1" fill="none" fill-rule="evenodd">
        <g id="Homepage" transform="translate(-345.000000, -3064.000000)">
            <g id="Fold-4" transform="translate(0.000000, 2700.000000)">
                <g id="Partner" transform="translate(344.000000, 364.000000)">
                    <g id="Partner-Icon" transform="translate(1.000000, 0.000000)">
                        <rect id="Rectangle" x="0" y="0" width="100" height="100"></rect>
                        <g filter="url(#filter-1)" id="Icon" stroke-linecap="round" stroke-linejoin="round">
                            <g transform="translate(5.000000, 11.000000)">
                                <path d="M57.1930434,18.15975 C62.8943478,14.0371875 75.9130434,15.19875 77.4782608,21.65625 C77.9852482,24.4075103 77.364195,27.2481227 75.7565217,29.53125 C79.477826,29.53125 78.4604347,37.40625 75.783913,37.40625 C75.7799999,45.871875 72.3913043,47.25 72.3913043,47.25 L72.3913043,55.125 L85.3513043,60.921 C88.178436,62.1848399 90.0003926,65.0058437 90,68.11875 L90,78.75 L76.3043478,78.75" id="Path" stroke="#000000" stroke-width="3.6"></path>
                                <path d="M66.5217391,67.386375 C66.5200403,62.5358046 63.5716672,58.1792923 59.0869565,56.40075 L41.0869565,49.21875 L41.0869565,39.375 C41.0869565,39.375 46.9565217,37.40625 46.9565217,27.5625 C50.1886956,27.5625 50.1886956,19.6875 46.9565217,19.6875 C46.9565217,18.7228125 50.2708695,11.3715 48.9130434,5.90625 C46.9565217,-1.96875 25.4347826,-1.96875 23.4782609,5.90625 C13.6956522,3.9375 19.5652174,18.3684375 19.5652174,19.6875 C16.3330435,19.6875 16.3330435,27.5625 19.5652174,27.5625 C19.5652174,37.40625 25.4347826,39.375 25.4347826,39.375 L25.4347826,49.21875 L7.39956521,56.4440625 C2.93267449,58.2323153 0.000790556642,62.5804011 0,67.417875 L0,78.75 L66.5217391,78.75 L66.5217391,67.386375 Z" id="Path" stroke="#000000" stroke-width="3.6"></path>
                            </g>
                        </g>
                    </g>
                </g>
            </g>
        </g>
    </g>
</svg>